<svg width="14" height="15" viewBox="0 0 14 15" fill="none" xmlns="http://www.w3.org/2000/svg">
<path d="M8.34512 13.1293C7.32369 13.5085 6.16451 13.3994 5.18747 12.9063C4.21024 12.4128 3.415 11.5535 2.89918 10.5447C1.82617 8.44655 2.03154 5.68863 3.40168 3.79491C4.77202 1.90152 7.23181 0.976793 9.42126 1.53214C7.11638 2.19061 5.30585 4.454 5.07099 6.97208C4.83613 9.49017 6.20674 12.0046 8.34512 13.1293Z" fill="#164495"/>
<path d="M10.0821 5.85949L10.7595 3.35931L11.0462 6.83591L13.977 4.75303L11.8225 7.28748L13.653 8.59136L11.5024 8.17525L12.7833 11.6725L11.0462 8.972L9.86315 12.1856V8.52457L7.90933 9.92892L9.54141 8.07654L6.86963 6.83651L9.54141 7.28748C9.54141 7.28748 8.49837 4.37948 8.54671 4.47877C8.59506 4.57807 10.0821 5.86008 10.0821 5.86008V5.85949Z" fill="#EDBB6D"/>
</svg>
