<?xml version="1.0" encoding="UTF-8"?>
<svg id="Capa_1" data-name="Capa 1" xmlns="http://www.w3.org/2000/svg" version="1.1" viewBox="0 0 85 85">
  <defs>
    <style>
      .cls-1 {
        fill: #000;
        stroke-width: 0px;
      }
    </style>
  </defs>
  <path class="cls-1" d="M76.6,19.6c-1.1-.1-2-.3-3-.5-3.1-.6-6.6-1.4-10.8,1.5-3.1,2.1-5.5,5.3-7.6,8.2-1.3,1.7-2.5,3.4-3.7,4.6-3.1,3.1-4.6,3.7-8.8,3.7s-.2,0-.3,0c0,0-.2,0-.3,0-4.2,0-5.8-.7-8.8-3.7-1.2-1.2-2.4-2.8-3.7-4.6-2.1-2.9-4.5-6.1-7.6-8.2-4.2-2.8-7.7-2.1-10.8-1.5-.9.2-1.9.4-3,.5-1.6.2-2.8,1.6-2.6,3.2.2,1.6,1.6,2.8,3.2,2.6,1.3-.1,2.4-.4,3.5-.6,2.7-.6,4.2-.9,6.4.6,2.3,1.5,4.2,4.2,6.1,6.8,1.3,1.8,2.7,3.7,4.2,5.2,1.1,1.1,2.2,2,3.2,2.8-5.7,3.4-9.4,9.6-9.4,16.7,0,10.7,8.7,19.5,19.5,19.5s19.5-8.7,19.5-19.5-3.8-13.3-9.4-16.7c1-.7,2.1-1.6,3.2-2.8,1.5-1.5,2.9-3.4,4.2-5.2,1.9-2.6,3.9-5.3,6.1-6.8,2.2-1.5,3.7-1.2,6.4-.6,1.1.2,2.3.5,3.5.6,1.6.2,3-1,3.2-2.6.2-1.6-1-3-2.6-3.2ZM56.9,56.8c0,7.9-6.5,14.4-14.4,14.4s-14.4-6.5-14.4-14.4,5-12.8,11.7-14.1c.8,0,1.6,0,2.4,0s.2,0,.3,0c0,0,.2,0,.3,0,.9,0,1.7,0,2.4,0,6.6,1.3,11.7,7.1,11.7,14.1Z"/>
</svg>