<?xml version="1.0" encoding="UTF-8"?>
<svg id="Capa_1" data-name="Capa 1" xmlns="http://www.w3.org/2000/svg" version="1.1" viewBox="0 0 85 85">
  <defs>
    <style>
      .cls-1 {
        fill: #000;
        stroke-width: 0px;
      }
    </style>
  </defs>
  <path class="cls-1" d="M64.6,71.1c-2.1-.6-4.1-1.9-5.8-3.7,16.9-17.9,11.2-37.5,11.1-37.8-.2-.6-.6-1.1-1.2-1.4s-1.3-.3-1.9-.1c-5.5,1.8-9.4,5.7-12,9.1v-16c-.3-3-1.9-5.6-4.4-6.8-2.1-1.1-4.5-1-6.5.2l-5.2,3.1c-.8-1.5-1.9-2.6-3.3-3.4-2.1-1.1-4.5-1-6.5.2l-3.4,2c-.3.2-.6.4-.9.6-.8-3.9-3-7.6-6.3-10.7-1-.9-2.5-.8-3.4,0-.9,1-.8,2.5.1,3.4,3.4,3.1,5.2,6.8,5.2,10.8v39.9c0,1.3,1.1,2.4,2.4,2.4s2.4-1.1,2.4-2.4V23.8c.4-1.5,1.4-2.8,2.8-3.6l3.4-2c.9-.6,1.8-.4,2.3,0,1.1.6,1.9,1.8,2,3.4v39.2c0,1.2,1,2.2,2.2,2.2s2.2-1,2.2-2.2V22.1h0l6.4-3.9c.9-.6,1.8-.4,2.3,0,1.1.6,1.9,1.8,2,3.4v34.2c0,2.6,0,5.2,1,8,.4,1,.8,1.9,1.3,2.8-3.1,2.8-6.9,5.6-11.6,8.3-1.2.7-1.6,2.1-.9,3.3.4.8,1.3,1.2,2.1,1.2s.8,0,1.2-.3c4.8-2.7,8.8-5.6,12.1-8.6,2.2,2.3,4.8,4,7.7,4.9h.6c.9,0,1.8-.6,2.1-1.6.3-1.2-.3-2.4-1.5-2.7h-.1ZM55.4,45.4s3.4-7.9,10.4-11.7c.8,5.3,1.1,17.6-9.8,29.5-.2-.4-.4-.8-.5-1.2-.8-2-.8-4-.7-6.3v-9.5c.3-.2.5-.5.7-.9h-.1Z"/>
</svg>